<svg width="140" height="130" xmlns="http://www.w3.org/2000/svg" xml:space="preserve" version="1.1">

 <g>
  <title>Layer 1</title>
  <g id="svg_1">
   <path id="svg_2" d="m68.10666,3.80952c16.97,0 32.33,6.88 43.44,18c0.48,0.48 0.96,0.97 1.42,1.47l-1.92,6.46c-1.12,-1.35 -2.3,-2.65 -3.54,-3.89l0,0c-10.08,-10.08 -24.01,-16.32 -39.4,-16.32s-29.32,6.24 -39.4,16.32c-10.08,10.08 -16.32,24.01 -16.32,39.4s6.24,29.32 16.32,39.4c10.08,10.08 24.01,16.32 39.4,16.32s29.32,-6.24 39.4,-16.32c10.08,-10.08 16.32,-24.01 16.32,-39.4c0,-5.14 -0.7,-10.11 -2,-14.84l2.78,-9.33c3.18,7.42 4.94,15.59 4.94,24.17c0,16.97 -6.88,32.33 -18,43.44c-11.12,11.12 -26.48,18 -43.44,18c-16.97,0 -32.33,-6.88 -43.44,-18c-11.12,-11.11 -18,-26.47 -18,-43.44c0,-16.97 6.88,-32.33 18,-43.44c11.11,-11.12 26.47,-18 43.44,-18l0,0l0,0zm23.05,65.97c2.34,0 4.41,1.16 5.67,2.94l7.86,-1.46l16.42,-55.19c0.45,-1.54 2.07,-2.42 3.61,-1.97s2.42,2.07 1.97,3.61l-16.93,56.9c-0.33,1.13 -1.29,1.91 -2.39,2.06l-9.48,1.76c-0.76,3.02 -3.49,5.25 -6.74,5.25c-3.84,0 -6.95,-3.11 -6.95,-6.95s3.12,-6.95 6.96,-6.95l0,0zm-50.27,-11.08c-0.44,1.27 -1.82,1.94 -3.09,1.51c-1.27,-0.44 -1.94,-1.82 -1.51,-3.09c1.72,-4.97 4.45,-9.45 7.94,-13.21c3.5,-3.77 7.78,-6.82 12.59,-8.9c1.23,-0.53 2.66,0.04 3.19,1.27c0.53,1.23 -0.04,2.66 -1.27,3.19c-4.17,1.8 -7.89,4.46 -10.95,7.76c-3.03,3.27 -5.4,7.17 -6.9,11.47l0,0l0,0zm-12.93,-2.44c-0.33,1.31 -1.66,2.1 -2.96,1.76c-1.31,-0.33 -2.1,-1.66 -1.76,-2.97c1.96,-7.68 5.79,-14.61 10.96,-20.29c5.21,-5.72 11.79,-10.16 19.21,-12.82c1.27,-0.45 2.67,0.21 3.12,1.48c0.45,1.27 -0.21,2.67 -1.48,3.12c-6.67,2.39 -12.57,6.38 -17.25,11.5c-4.64,5.1 -8.08,11.33 -9.84,18.22l0,0l0,0zm40.15,-5.31c3.95,0 7.53,1.6 10.11,4.19c2.59,2.59 4.19,6.16 4.19,10.11c0,3.95 -1.6,7.53 -4.19,10.11c-2.59,2.59 -6.16,4.19 -10.11,4.19c-3.95,0 -7.53,-1.6 -10.11,-4.19c-2.59,-2.59 -4.19,-6.16 -4.19,-10.11c0,-3.95 1.6,-7.53 4.19,-10.11c2.58,-2.59 6.16,-4.19 10.11,-4.19l0,0l0,0z"/>
  </g>
 </g>
</svg>