<svg width="500" height="500" xmlns="http://www.w3.org/2000/svg" shape-rendering="geometricPrecision" text-rendering="geometricPrecision" image-rendering="optimizeQuality" fill-rule="evenodd" clip-rule="evenodd">
 <g>
  <title>Layer 1</title>
  <g id="svg_2">
   <g id="svg_3">
    <path id="svg_4" class="st0" d="m425.18,47.33276l0,105.65404l-10.31778,0c-6.19067,-24.4452 -12.95278,-41.9378 -20.41333,-52.5413c-7.46055,-10.69874 -17.77832,-19.14345 -30.82634,-25.42935c-7.27006,-3.55566 -20.03236,-5.20651 -38.19165,-5.20651l-29.04851,0l0,300.83465c0,19.93712 1.0794,32.41369 3.23819,37.42972c2.25404,4.98428 6.57163,9.33362 12.95278,13.07977c6.47639,3.80964 15.20682,5.68271 26.31827,5.68271l12.95278,0l0,10.6035l-204.26025,0l0,-10.6035l12.95278,0c11.30193,0 20.41333,-2.06356 27.30243,-6.09543c5.01603,-2.66675 8.95266,-7.27006 11.77814,-13.8417c2.1588,-4.50808 3.23819,-16.60369 3.23819,-36.22334l0,-300.83465l-28.28658,0c-26.22303,0 -45.36647,5.49223 -57.23985,16.69893c-16.69893,15.52429 -27.20719,37.6837 -31.62002,66.47823l-10.88922,0l0,-105.68579l350.35998,0l0,0z" fill-rule="evenodd" clip-rule="evenodd"/>
   </g>
  </g>
 </g>

</svg>