<svg width="600" height="500" xmlns="http://www.w3.org/2000/svg" clip-rule="evenodd" fill-rule="evenodd" image-rendering="optimizeQuality" text-rendering="geometricPrecision" shape-rendering="geometricPrecision">

 <g>
  <title>Layer 1</title>
  <path id="svg_1" d="m129.2436,19.88413l343.11283,0c29.20086,0 55.81719,11.97789 75.13602,31.29672c19.31883,19.24281 31.30758,45.85914 31.30758,75.14688l0,213.14782c0,29.22258 -11.97789,55.82805 -31.30758,75.15774c-19.23195,19.30797 -45.84828,31.29672 -75.13602,31.29672l-343.11283,0c-29.28774,0 -55.90407,-11.98875 -75.17946,-31.26414l-1.19453,-1.28141c-18.59125,-19.21024 -30.06961,-45.30532 -30.06961,-73.90891l0,-213.14782c0,-29.20086 11.97789,-55.78461 31.26414,-75.10344l0.07602,-0.07602c19.36227,-19.30797 45.9243,-31.26414 75.10344,-31.26414zm245.10697,226.51572c13.43305,-8.67664 13.40047,-18.34149 0,-26.01906l-107.74672,-75.02743c-10.95711,-6.86313 -22.37031,-2.8343 -22.06625,11.45664l0.43438,150.94532c0.93391,15.49633 9.7843,19.7532 22.82641,12.58602l106.55219,-73.94149zm98.00586,-184.25103l-343.11283,0c-17.68992,0 -33.74008,7.18891 -45.31617,18.78672l-0.07602,0.07602c-11.59781,11.57609 -18.78672,27.62625 -18.78672,45.31617l0,213.14782c0,17.24469 6.81969,32.91477 17.88539,44.41485l0.97734,0.91219c11.63039,11.63039 27.68055,18.86274 45.31617,18.86274l343.11283,0c17.63563,0 33.68578,-7.23234 45.31617,-18.86274c11.66297,-11.57609 18.86274,-27.62625 18.86274,-45.32703l0,-213.14782c0,-17.63563 -7.23234,-33.68578 -18.86274,-45.31617c-11.57609,-11.67383 -27.62625,-18.86274 -45.31617,-18.86274z" fill-rule="nonzero"/>
 </g>
</svg>